<?xml version="1.0" encoding="UTF-8"?>
<!DOCTYPE svg PUBLIC "-//W3C//DTD SVG 1.1//EN" "http://www.w3.org/Graphics/SVG/1.1/DTD/svg11.dtd">
<!-- Creator: CorelDRAW X5 -->
<svg xmlns="http://www.w3.org/2000/svg" xml:space="preserve" width="576px" height="576px" style="shape-rendering:geometricPrecision; text-rendering:geometricPrecision; image-rendering:optimizeQuality; fill-rule:evenodd; clip-rule:evenodd"
viewBox="0 0 2267 2267"
 xmlns:xlink="http://www.w3.org/1999/xlink">
 <defs>
  <style type="text/css">
   <![CDATA[
    .fil0 {fill:#ffffff}
   ]]>
  </style>
 </defs>
 <g id="Vrstva_x0020_1">
  <metadata id="CorelCorpID_0Corel-Layer"/>
  <path class="fil0" d="M1133 2063c-513,0 -929,-416 -929,-929 0,-513 416,-929 929,-929 513,0 929,416 929,929 0,513 -416,929 -929,929zm0 -2063c-626,0 -1133,507 -1133,1133 0,626 507,1134 1133,1134 626,0 1134,-507 1134,-1134 0,-626 -507,-1133 -1134,-1133z"/>
  <path class="fil0" d="M1268 1438c-69,0 -125,-56 -125,-125 0,-69 56,-125 125,-125 69,0 125,56 125,125 0,69 -56,125 -125,125zm603 160c-62,-82 -161,-136 -272,-136 -9,0 -18,0 -27,1l-6 1c-12,0 -21,9 -23,21l-1 13c0,19 -15,34 -34,34 -19,0 -34,-15 -34,-34 0,-6 6,-21 6,-21 58,-126 90,-266 90,-413 0,-270 -108,-514 -282,-693l-20 -20c-41,-40 -97,-65 -159,-65l-22 1c-82,4 -160,18 -234,43l-6 3c-15,8 -25,23 -25,40 0,11 4,21 10,29l8 8c73,54 141,115 202,182l6 7c6,7 9,12 9,21 0,16 -13,28 -28,28 -8,0 -15,-3 -20,-8l-9 -10c-68,-73 -143,-140 -225,-197l-25 -15c-12,-5 -24,-8 -38,-8 -14,0 -27,3 -38,8l-16 7c-75,49 -142,108 -199,177l-9 17c-2,5 -4,11 -4,18 0,16 8,29 20,38l9 5c84,25 164,62 236,109l8 4c7,5 11,13 11,23 0,16 -13,28 -28,28 0,0 -7,0 -13,-3 -3,-2 -9,-5 -9,-5 -72,-47 -152,-83 -238,-106l-26 -4c-27,0 -51,16 -62,39l-6 10c-31,63 -54,131 -69,201l-1 13c0,2 0,4 0,6 0,25 20,45 45,45l13 -1c6,0 12,0 18,0 258,0 470,195 496,446l2 15c0,2 0,3 0,5 0,25 -20,45 -45,45l-18 -1c-23,-3 -40,-11 -63,-29l-8 -5c-30,-21 -63,-38 -99,-49 0,0 -36,-3 -58,-2l-212 0c-12,0 -23,10 -23,23 0,7 3,13 8,17l1 1c79,51 136,135 151,233l0 -1c0,11 8,21 19,23 0,0 33,0 46,0 47,0 91,-9 131,-26l62 -29c36,-13 75,-20 115,-20l647 0c19,0 34,15 34,34l1 15c0,10 6,18 15,21l9 2c10,1 21,1 31,1 112,0 211,-54 273,-138 0,0 3,-4 6,-10 -3,-5 -7,-11 -7,-11z"/>
 </g>
</svg>
