<svg width="636" height="182" viewBox="0 0 636 182" fill="none" xmlns="http://www.w3.org/2000/svg">
<g clip-path="url(#clip0)">
<path d="M29.17 181.6C33.5578 181.665 37.9022 180.724 41.8701 178.85C45.6666 177.019 48.9458 174.269 51.4101 170.85L43.4101 162.61C39.7701 167.39 35.2534 169.78 29.86 169.78C26.7338 169.837 23.6572 168.994 20.9973 167.35C18.3375 165.706 16.207 163.332 14.86 160.51C13.4111 157.389 12.6605 153.99 12.6605 150.55C12.6605 147.11 13.4111 143.71 14.86 140.59C16.207 137.768 18.3375 135.394 20.9973 133.75C23.6572 132.106 26.7338 131.263 29.86 131.32C35.2467 131.32 39.7634 133.653 43.4101 138.32L51.4101 130.07C48.928 126.708 45.6683 123.997 41.9101 122.17C37.5355 120.172 32.7485 119.244 27.9442 119.461C23.14 119.678 18.4563 121.035 14.2801 123.42C9.83638 126.083 6.2135 129.921 3.81006 134.51C1.30809 139.472 0.00476074 144.952 0.00476074 150.51C0.00476074 156.067 1.30809 161.548 3.81006 166.51C6.22759 171.123 9.87853 174.975 14.3561 177.636C18.8337 180.297 23.9622 181.662 29.17 181.58V181.6Z" fill="white"/>
<path d="M86.66 181.6C91.915 181.691 97.0923 180.323 101.617 177.648C106.141 174.974 109.836 171.098 112.29 166.45C114.82 161.521 116.14 156.06 116.14 150.52C116.14 144.98 114.82 139.519 112.29 134.59C110.371 131.158 107.787 128.142 104.689 125.72C101.591 123.298 98.0415 121.517 94.2477 120.482C90.454 119.446 86.492 119.177 82.5931 119.69C78.6943 120.204 74.9367 121.488 71.54 123.47C67.07 126.139 63.4201 129.986 60.99 134.59C58.4855 139.527 57.1803 144.984 57.1803 150.52C57.1803 156.056 58.4855 161.513 60.99 166.45C63.4201 171.054 67.07 174.901 71.54 177.57C76.1156 180.27 81.3478 181.654 86.66 181.57V181.6ZM86.66 169.75C83.6111 169.788 80.6166 168.941 78.04 167.31C75.453 165.625 73.3778 163.263 72.04 160.48C70.597 157.358 69.8496 153.959 69.8496 150.52C69.8496 147.081 70.597 143.682 72.04 140.56C73.3752 137.776 75.451 135.413 78.04 133.73C80.6323 132.135 83.6163 131.291 86.66 131.291C89.7037 131.291 92.6877 132.135 95.28 133.73C97.8714 135.41 99.9479 137.774 101.28 140.56C102.729 143.681 103.48 147.08 103.48 150.52C103.48 153.96 102.729 157.36 101.28 160.48C99.9453 163.265 97.8694 165.628 95.28 167.31C92.7041 168.942 89.7092 169.79 86.66 169.75V169.75Z" fill="white"/>
<path d="M150.81 120.47H127.45V180.57H139.92V164H150.81C155.101 164.107 159.357 163.21 163.24 161.38C166.651 159.743 169.483 157.106 171.36 153.82C173.232 150.251 174.21 146.28 174.21 142.25C174.21 138.22 173.232 134.249 171.36 130.68C169.464 127.412 166.637 124.783 163.24 123.13C159.364 121.277 155.105 120.366 150.81 120.47ZM150.12 152.67H139.92V131.78H150.08C153.83 131.78 156.67 132.68 158.62 134.49C160.57 136.3 161.55 138.88 161.55 142.26C161.55 145.64 160.55 148.14 158.62 149.94C156.69 151.74 153.83 152.65 150.08 152.65L150.12 152.67Z" fill="white"/>
<path d="M197.34 169.41V155.5H222.34V144.68H197.34V131.68H225.66V120.47H184.95V180.57H226.66V169.41H197.34Z" fill="white"/>
<path d="M275.61 120.47V156.96L248.81 120.47H238.51V180.57H250.81V144.08L277.67 180.57H287.91V120.47H275.61Z" fill="white"/>
<path d="M339.57 120.47V144.17H315.09V120.47H302.63V180.57H315.09V155.93H339.57V180.57H352.04V120.47H339.57Z" fill="white"/>
<path d="M406.99 180.57H420.07L395.98 120.47H383.67L359.67 180.57H372.44L377.22 167.69H402.22L406.99 180.57ZM381.21 157.13L389.75 134.13L398.29 157.13H381.21Z" fill="white"/>
<path d="M463.25 167.18C460.314 168.91 456.958 169.799 453.55 169.75C450.39 169.826 447.275 168.993 444.575 167.349C441.875 165.706 439.704 163.322 438.32 160.48C436.846 157.352 436.082 153.938 436.082 150.48C436.082 147.023 436.846 143.608 438.32 140.48C439.702 137.668 441.865 135.314 444.55 133.7C447.324 132.072 450.494 131.241 453.71 131.3C459.15 131.3 463.793 133.56 467.64 138.08L475.64 129.84C473.09 126.51 469.763 123.856 465.95 122.11C461.909 120.294 457.52 119.386 453.09 119.45C447.741 119.376 442.473 120.759 437.85 123.45C433.36 126.085 429.695 129.923 427.27 134.53C424.768 139.492 423.465 144.973 423.465 150.53C423.465 156.088 424.768 161.568 427.27 166.53C429.692 171.126 433.34 174.962 437.81 177.61C442.375 180.302 447.592 181.685 452.89 181.61C456.847 181.59 460.774 180.914 464.51 179.61C468.22 178.369 471.666 176.446 474.67 173.94V149.57H463.25V167.18Z" fill="white"/>
<path d="M500.5 169.41V155.5H525.5V144.68H500.5V131.68H528.81V120.47H488.11V180.57H529.81V169.41H500.5Z" fill="white"/>
<path d="M578.81 120.47V156.96L552.02 120.47H541.68V180.57H553.99V144.08L580.81 180.57H591.05V120.47H578.81Z" fill="white"/>
<path d="M591.09 0H220.28V33.55H591.09V0Z" fill="white"/>
<g clip-path="url(#clip1)">
<path d="M282.08 106.5L603.32 106.5V181.07H636.32V-1L603.32 -1V73L282.08 73V106.5Z" fill="white"/>
</g>
</g>
<defs>
<clipPath id="clip0">
<rect width="636" height="182" fill="white"/>
</clipPath>
<clipPath id="clip1">
<rect width="182.11" height="409.32" fill="white" transform="translate(636.32 -1) rotate(90)"/>
</clipPath>
</defs>
</svg>
