<?xml version="1.0" encoding="utf-8"?>
<!-- Generator: Adobe Illustrator 21.0.0, SVG Export Plug-In . SVG Version: 6.00 Build 0)  -->
<svg version="1.1" id="Layer_1" xmlns="http://www.w3.org/2000/svg" xmlns:xlink="http://www.w3.org/1999/xlink" x="0px" y="0px"
	 viewBox="0 0 166 68" style="enable-background:new 0 0 166 68;" xml:space="preserve">
<style type="text/css">
	.st0{fill:#2AA3DC;}
	.st1{fill:#00A6F0;}
	.st2{fill:#FFFFFF;}
</style>
<g>
	<rect class="st0" width="166" height="68"/>
	<rect class="st1" width="166" height="68"/>
</g>
<g>
	<path class="st2" d="M43,48.2c0.2,0,0.5-0.1,0.7-0.3c0.2-0.2,0.3-0.4,0.3-0.7c0-4.3,1.6-6.9,3.5-8.5l0.8,1.6
		c-1.4,1.3-2.3,3.1-2.3,5.2c0,3.9,3.2,7,7,7s7-3.2,7-7c0-3.9-3.2-7-7-7c-0.5,0-1.1,0.1-1.6,0.2l-0.9-1.7c1.8-0.7,3.3-0.7,3.5-0.7
		c0.3,0,0.5-0.1,0.7-0.3c0.2-0.2,0.3-0.4,0.3-0.7c-0.3-5.8-4.1-7.9-7.6-7.9c-0.3,0-0.4,0-0.5,0l0,0.1l-1.3,2.9l-0.2,0.4
		c-0.1,0.3-0.4,1-1.1,1.5c-0.3,0.2-1,0.4-2.1,0.6l-1.2-4.3c1.2,0.6,2.6,1.4,3.8,1.9l1.5-3.4c-3.2-1.8-9.2-4.9-11.3-5
		c-0.8,0-1.9,0.4-2.7,1.1c0,0-0.6,0.8-0.8,1.1c-0.8,1.1-2,2.6-2.2,2.9c-0.5,0.6-0.8,1.5-0.8,2.4c0,0.2,0,0.4,0.1,0.6
		c0,0.2,0.1,0.4,0.1,0.6c0,0,0,0,0,0c0,0.1,0.1,0.2,0.1,0.3c0.3,0.6,1,1.6,1.8,2.6c0.3,0.3,0.5,0.6,0.8,0.9c0.1,0.2,0.3,0.3,0.4,0.5
		c0,0,0.1,0.1,0.1,0.1c0.1,0.1,0.2,0.2,0.3,0.3c0.3,0.4,0.6,0.7,0.8,1c0.4,0.5,0.8,0.8,1.1,1.1c1.2,0.6,2.3,0.1,2.6-0.8
		c0-0.4-0.1-0.8-0.3-1.2c0-0.1-0.1-0.2-0.1-0.2c-0.1-0.2-0.3-0.4-0.4-0.6c-0.1-0.1-0.1-0.2-0.2-0.3c-0.2-0.3-0.4-0.6-0.6-0.9
		c-0.4-0.5-0.7-1-1-1.3c-0.5-0.6-0.8-1.1-1-1.5c-0.1-0.2-0.2-0.6-0.3-1c0-0.2,0-0.4,0-0.7c0.1-0.2,0.2-0.5,0.3-0.7
		c0.1-0.2,0.3-0.4,0.5-0.5c0.1-0.1,0.3-0.1,0.4,0c0,0,0,0,0,0c0,0.1,0.1,0.1,0.1,0.2c0,0.1,0,0.2-0.1,0.2c-0.2,0.2-0.4,0.4-0.4,0.6
		c-0.1,0.2-0.2,0.5-0.2,0.7l5.6-1.6l0.3-0.1l0,0l0,0l1.5,5.2L41,34l0.3,0.9l1.6,5.8l-10.3,2.9l-2.7,0.8l0,0l-0.4-1.5l-0.6-2.3
		l-1.4-4.9l-0.3-0.9l-0.3-0.9l-0.7-2.3L28,31c-0.1-0.2-0.1-0.4-0.1-0.6c0-0.2-0.1-0.4-0.1-0.6l-2.4,0.7c-0.2,0-0.3,0.2-0.4,0.3
		c-0.1,0.1-0.1,0.3-0.1,0.5l0.6,2.3L18,31.7c-0.5-0.1-0.9,0.1-1.1,0.6l-0.2,0.5c-0.2,0.5,0,1,0.5,1.2c2.2,1,8.1,4.2,9.6,6.7
		c0.5,0.8,0.8,1.6,1,2.4l-1.4,0.2c-1-2.7-3.6-4.6-6.6-4.6c-3.9,0-7,3.2-7,7c0,3.9,3.2,7,7,7c3.2,0,5.9-2.1,6.7-5l2.7,0.1
		c0,0,0.1,0,0.2,0L43,48.2C43,48.2,43,48.2,43,48.2z M53,41.1c2.5,0,4.5,2,4.5,4.5c0,2.5-2,4.5-4.5,4.5c-2.5,0-4.5-2-4.5-4.5
		c0-1.1,0.4-2.1,1-2.8l1.8,3.5c0.4,0.9,1.5,1.2,2.4,0.8c0.9-0.4,1.2-1.5,0.8-2.4l-1.8-3.6C52.7,41.1,52.8,41.1,53,41.1z M19.7,50.1
		c-2.5,0-4.5-2-4.5-4.5c0-2.5,2-4.5,4.5-4.5c1.7,0,3.2,1,4,2.4l-3.9,0.4c-0.9,0-1.7,0.8-1.7,1.7c0,0.9,0.8,1.7,1.7,1.7l4.1,0.2
		C23.1,49.1,21.5,50.1,19.7,50.1z"/>
	<path class="st2" d="M37.6,21.4c0.8,0.4,1.9,0.9,2.9,1.4c4.1,2,5.3,1.2,5.6-2c-1.1-0.3-2.4-0.8-2.8-0.9c-1-0.4-1.2-1.2-1-1.6
		c0.2-0.5,1-0.8,1.7-0.8c0.3,0,1.2,0.1,2,0.2c-0.4-1.7-1.4-2.9-3.2-3.4c-2.6-0.8-5.3-0.1-6.2,2.4C35.9,18.4,36,20.6,37.6,21.4z"/>
</g>
<g>
	<g>
		<path class="st2" d="M68.1,33.3c0-4.4,3.3-7.3,7.4-7.3c4,0,7.4,2.9,7.4,7.3c0,4.5-3.4,7.4-7.4,7.4C71.4,40.7,68.1,37.8,68.1,33.3
			 M79.2,33.3c0-2.2-1.7-3.7-3.7-3.7c-2,0-3.7,1.5-3.7,3.7c0,2.3,1.7,3.8,3.7,3.8C77.5,37.1,79.2,35.6,79.2,33.3"/>
		<path class="st2" d="M87.5,40.5h-3.7V26.3h3.7v2.1c0.8-1.5,2.6-2.4,4.2-2.4c3.3,0,5.3,2.1,5.3,6.1v8.4h-3.7v-7.7
			c0-2.1-1.1-3.1-2.7-3.1c-1.7,0-3.1,0.8-3.1,3.3V40.5z"/>
		<path class="st2" d="M102.4,40.5h-3.7V26.3h3.7V40.5z"/>
		<path class="st2" d="M104.3,40.5V20.6l3.7-1v8.6c0.8-1.4,2.5-2.2,4.4-2.2c3.7,0,6.9,2.9,6.9,7.4c0,4.5-3.2,7.4-6.9,7.4
			c-1.8,0-3.7-0.8-4.4-2.2v1.9H104.3z M111.8,37.2c2.1,0,3.7-1.5,3.7-3.9c0-2.3-1.7-3.8-3.7-3.8c-1.9,0-3.8,1.4-3.8,3.8
			C108.1,35.7,109.8,37.2,111.8,37.2"/>
		<path class="st2" d="M131.8,38.6c-0.9,1.5-3,2.1-4.4,2.1c-3.7,0-7.2-2.8-7.2-7.4c0-4.5,3.5-7.4,7.2-7.4c1.3,0,3.4,0.5,4.4,2.1
			v-1.8h3.7v14.1h-3.7V38.6z M127.9,37.2c2,0,3.9-1.4,3.9-3.8c0-2.5-1.9-3.8-3.9-3.8c-2,0-3.9,1.5-3.9,3.8
			C124,35.6,125.9,37.2,127.9,37.2"/>
		<path class="st2" d="M143.8,44.1c3.6,0,4.5-2.7,4.3-5.6c-0.7,1.4-2.7,2.2-4.5,2.2c-3.7,0-7.1-2.9-7.1-7.3c0-4.5,3.4-7.4,7.1-7.4
			c1.8,0,3.7,0.8,4.5,2.2v-1.9h3.6v12.1c0,6.3-3,9.1-7.9,9.1c-2.9,0-5.5-1.6-6.8-4.2l3.3-0.9C141.1,43.5,142.5,44.1,143.8,44.1
			 M144.2,29.6c-2.1,0-3.8,1.5-3.8,3.8c0,2.4,1.8,3.9,3.8,3.9c1.9,0,3.8-1.5,3.8-3.9C148,30.9,146.2,29.6,144.2,29.6"/>
	</g>
	<path class="st2" d="M102.5,21.2c0.3,0.4,0.4,0.8,0.4,1.3c0,1.3-1.1,2.2-2.3,2.2c-1.3,0-2.4-1-2.4-2.2c0,0,0,0,0-0.1L102.5,21.2z"
		/>
</g>
</svg>
